<svg width="100" height="100" viewBox="0 0 100 100" fill="none" xmlns="http://www.w3.org/2000/svg">
<circle cx="50" cy="50" r="50" fill="#BFBFBF" fill-opacity="0.74902"/>
<path d="M49.9999 18.4203C32.5874 18.4203 18.4202 32.5865 18.4202 50C18.4202 67.4125 32.5874 81.5797 49.9999 81.5797C67.4124 81.5797 81.5796 67.4125 81.5796 50C81.5796 32.5865 67.4124 18.4203 49.9999 18.4203ZM49.9999 77.6908C34.7311 77.6908 22.3091 65.2688 22.3091 50C22.3091 34.7313 34.7311 22.3092 49.9999 22.3092C65.2686 22.3092 77.6907 34.7313 77.6907 50C77.6907 65.2688 65.2686 77.6908 49.9999 77.6908Z" fill="black"/>
<path d="M56.4614 26.4129C55.9432 26.2748 55.4094 26.5772 55.2665 27.0944C55.1255 27.6136 55.4318 28.1473 55.948 28.2893C65.6975 30.9541 72.505 39.8821 72.505 50C72.505 50.5376 72.9415 50.9722 73.4772 50.9722C74.0148 50.9722 74.4494 50.5376 74.4494 50C74.4494 39.008 67.0537 29.3091 56.4614 26.4129Z" fill="black"/>
<path d="M50.0008 27.494C50.4218 27.494 50.8408 27.5057 51.2569 27.528C51.2763 27.53 51.2929 27.53 51.3123 27.53C51.8247 27.53 52.2544 27.1284 52.2826 26.6112C52.3118 26.0746 51.9015 25.6157 51.3638 25.5875C50.9118 25.5632 50.4587 25.5496 50.0018 25.5496C49.4651 25.5496 49.0295 25.9841 49.0295 26.5218C49.0286 27.0594 49.4641 27.494 50.0008 27.494Z" fill="black"/>
<path d="M58.4115 41.5795L48.1468 47.8795C48.069 47.9243 48.0116 47.9806 47.9406 48.0293V43.6786C47.9406 42.2008 46.5465 41.1284 45.093 41.1284C44.568 41.1284 43.693 41.2772 43.1768 41.5766L33.0851 47.8795C32.1644 48.4123 31.6365 49.2056 31.6375 50.0563C31.6375 50.873 32.1313 51.6255 32.9665 52.1058L43.2536 58.4427C43.7416 58.7237 44.2734 58.8734 44.7916 58.8734C45.4634 58.8734 46.423 58.6245 46.8751 58.1744C47.3447 57.7087 47.9406 57.0505 47.9406 56.3213V51.9862C47.9961 52.0222 48.0388 52.0669 48.0972 52.0999L58.1159 58.4417C58.6118 58.7266 59.1086 58.8724 59.5966 58.8724C60.2577 58.8724 61.1862 58.6012 61.5984 58.1092C61.9825 57.6513 62.523 57.033 62.523 56.3204V43.6786C62.523 41.6233 60.3763 40.442 58.4115 41.5795ZM45.9962 56.3213C45.9962 56.4691 45.6336 56.6704 45.5072 56.7958C45.3983 56.9056 44.9073 56.929 44.7975 56.929C44.6195 56.929 44.429 56.8697 44.2598 56.7734L33.9844 50.4365C33.7044 50.2751 33.6247 50.1195 33.6247 50.0544C33.6237 49.9718 33.7958 49.7647 34.172 49.5459L44.3473 43.243C44.5398 43.1322 44.9093 43.0729 45.093 43.0729C45.3497 43.0729 45.9952 43.1769 45.9962 43.6786V56.3213ZM60.5776 56.3204C60.5776 56.5595 60.1926 56.7627 60.1099 56.8609C60.0837 56.892 59.7094 56.928 59.6034 56.928C59.5237 56.928 59.3555 56.9066 59.1329 56.7792L49.1268 50.4355C48.8186 50.2586 48.7281 50.0836 48.7281 50.0097C48.7281 49.9309 48.8876 49.7472 49.2405 49.543L59.2505 43.243C59.5072 43.0943 59.8504 43.0729 59.932 43.0729C60.1887 43.0729 60.5795 43.4015 60.5786 43.6786L60.5776 56.3204Z" fill="black"/>
</svg>
