<svg width="100" height="100" viewBox="0 0 100 100" fill="none" xmlns="http://www.w3.org/2000/svg">
<circle cx="50" cy="50" r="50" fill="#BFBFBF" fill-opacity="0.74902"/>
<path d="M49.9996 18.4203C32.5862 18.4203 18.4199 32.5865 18.4199 50C18.4199 67.4125 32.5862 81.5797 49.9996 81.5797C67.4121 81.5797 81.5794 67.4125 81.5794 50C81.5794 32.5865 67.4121 18.4203 49.9996 18.4203ZM49.9996 77.6908C34.7309 77.6908 22.3088 65.2687 22.3088 50C22.3088 34.7313 34.7309 22.3092 49.9996 22.3092C65.2684 22.3092 77.6905 34.7313 77.6905 50C77.6905 65.2687 65.2684 77.6908 49.9996 77.6908Z" fill="black"/>
<path d="M56.4616 26.4129C55.9492 26.2768 55.4097 26.5762 55.2667 27.0944C55.1258 27.6136 55.432 28.1474 55.9483 28.2893C65.6977 30.9542 72.5052 39.8821 72.5052 50C72.5052 50.5376 72.9398 50.9722 73.4774 50.9722C74.0151 50.9722 74.4497 50.5376 74.4497 50C74.4497 39.008 67.054 29.3092 56.4616 26.4129Z" fill="black"/>
<path d="M50.0001 27.494C50.421 27.494 50.8401 27.5057 51.2562 27.528C51.2756 27.53 51.2921 27.53 51.3116 27.53C51.8239 27.53 52.2537 27.1284 52.2819 26.6112C52.311 26.0746 51.9008 25.6157 51.3631 25.5875C50.911 25.5632 50.458 25.5496 50.001 25.5496C49.4644 25.5496 49.0288 25.9841 49.0288 26.5218C49.0278 27.0594 49.4634 27.494 50.0001 27.494Z" fill="black"/>
<path d="M66.6941 47.8951L56.5373 41.5581C56.0512 41.2772 55.6691 41.1284 55.1189 41.1284C53.6032 41.1284 52.7943 42.2251 52.7943 43.6786V49.1677C52.5804 48.6699 52.2022 48.2227 51.6383 47.897L41.6341 41.5572C41.1471 41.2762 40.7883 41.1274 40.2808 41.1274C38.8857 41.1274 38.2109 42.1988 38.2109 43.6776V56.3204C38.2109 57.7991 38.8759 58.8724 40.2565 58.8724C40.7601 58.8724 41.1257 58.7227 41.6409 58.4233L51.6043 52.1204C52.174 51.7917 52.5726 51.3474 52.7952 50.8536V56.3204C52.7952 57.7748 53.5798 58.8724 55.0625 58.8724C55.604 58.8724 55.989 58.7227 56.4965 58.432L66.7486 52.1204C67.5954 51.6323 68.101 50.8905 68.1029 50.0826C68.101 49.2251 67.6051 48.422 66.6941 47.8951ZM50.669 50.453L40.6318 56.7579C40.3877 56.8988 40.3693 56.929 40.2565 56.929C40.1476 56.929 40.1554 56.929 40.1554 56.3213V43.6786C40.1554 43.2761 39.9745 43.0729 40.2808 43.0729C40.448 43.0729 40.4801 43.1312 40.6415 43.2236L50.5708 49.5634C50.9091 49.7579 51.0511 49.9523 51.0511 50.0359C51.0511 50.1059 50.9889 50.2683 50.669 50.453ZM65.8201 50.4462L55.4941 56.7579C55.3026 56.8697 55.2628 56.929 55.0615 56.929C54.8641 56.929 54.7387 56.8677 54.7387 56.3213V43.6786C54.7387 43.1166 54.9516 43.0729 55.1189 43.0729C55.3279 43.0729 55.3823 43.1312 55.5496 43.2265L65.6325 49.5634C65.999 49.7744 66.1565 49.9931 66.1565 50.0816C66.1565 50.1409 66.103 50.2838 65.8201 50.4462Z" fill="black"/>
</svg>
