<svg width="40" height="40" viewBox="0 0 40 40" fill="none" xmlns="http://www.w3.org/2000/svg">
<path fill-rule="evenodd" clip-rule="evenodd" d="M8.60609 20.0001C8.60609 18.7298 8.81705 17.5121 9.19359 16.3698L2.60291 11.3369C1.31842 13.9449 0.594727 16.8836 0.594727 20.0001C0.594727 23.1138 1.31753 26.0507 2.60024 28.6569L9.18736 23.6143C8.81438 22.4774 8.60609 21.2641 8.60609 20.0001Z" fill="#FBBC05"/>
<path fill-rule="evenodd" clip-rule="evenodd" d="M20.1782 8.44452C22.9376 8.44452 25.4301 9.4223 27.3884 11.0223L33.0854 5.33341C29.6138 2.31119 25.163 0.444519 20.1782 0.444519C12.4392 0.444519 5.78799 4.8703 2.60303 11.337L9.19371 16.3699C10.7123 11.7601 15.0411 8.44452 20.1782 8.44452Z" fill="#EB4335"/>
<path fill-rule="evenodd" clip-rule="evenodd" d="M20.1782 31.5556C15.0411 31.5556 10.7123 28.2401 9.19371 23.6303L2.60303 28.6623C5.78799 35.1298 12.4392 39.5556 20.1782 39.5556C24.9547 39.5556 29.515 37.8596 32.9376 34.6818L26.6816 29.8454C24.9165 30.9574 22.6937 31.5556 20.1782 31.5556Z" fill="#34A853"/>
<path fill-rule="evenodd" clip-rule="evenodd" d="M38.8714 20.0001C38.8714 18.8445 38.6934 17.6001 38.4263 16.4445H20.1782V24.0001H30.682C30.1568 26.5761 28.7272 28.5565 26.6817 29.8454L32.9377 34.6819C36.533 31.345 38.8714 26.3743 38.8714 20.0001Z" fill="#4285F4"/>
</svg>
