<svg width="134" height="26" viewBox="0 0 134 26" fill="none" xmlns="http://www.w3.org/2000/svg">
<path d="M13 0L17.0422 7.43639L25.3637 8.98278L19.5404 15.1251L20.6412 23.5172L13 19.877L5.35879 23.5172L6.45958 15.1251L0.636266 8.98278L8.9578 7.43639L13 0Z" fill="#FFF847"/>
<path d="M40 0L44.0422 7.43639L52.3637 8.98278L46.5404 15.1251L47.6412 23.5172L40 19.877L32.3588 23.5172L33.4596 15.1251L27.6363 8.98278L35.9578 7.43639L40 0Z" fill="#FFF847"/>
<path d="M67 0L71.0422 7.43639L79.3637 8.98278L73.5404 15.1251L74.6412 23.5172L67 19.877L59.3588 23.5172L60.4596 15.1251L54.6363 8.98278L62.9578 7.43639L67 0Z" fill="#FFF847"/>
<path d="M94 0L98.0422 7.43639L106.364 8.98278L100.54 15.1251L101.641 23.5172L94 19.877L86.3588 23.5172L87.4596 15.1251L81.6363 8.98278L89.9578 7.43639L94 0Z" fill="#FFF847"/>
<path d="M121 0L125.042 7.43639L133.364 8.98278L127.54 15.1251L128.641 23.5172L121 19.877L113.359 23.5172L114.46 15.1251L108.636 8.98278L116.958 7.43639L121 0Z" fill="url(#paint0_linear_55_10)"/>
<defs>
<linearGradient id="paint0_linear_55_10" x1="112.136" y1="13" x2="129.273" y2="13" gradientUnits="userSpaceOnUse">
<stop offset="0.244" stop-color="#FFF847"/>
<stop offset="1" stop-color="#FDFDFD"/>
</linearGradient>
</defs>
</svg>
