<svg width="1653" height="757" viewBox="0 0 1653 757" fill="none" xmlns="http://www.w3.org/2000/svg">
<path d="M1380.81 175.078L1394.59 120.938C1409.45 121.567 1420.42 129.108 1428.06 142.594L1380.81 175.078Z" stroke="black" stroke-opacity="0.5" stroke-width="3" stroke-linejoin="round"/>
<path d="M1393.22 126.332C1405.09 129.455 1415.69 136.244 1423.49 145.734" stroke="black" stroke-opacity="0.5" stroke-width="3" stroke-linejoin="round"/>
<path d="M1398.53 138.656C1400.16 138.656 1401.48 137.334 1401.48 135.703C1401.48 134.072 1400.16 132.75 1398.53 132.75C1396.9 132.75 1395.58 134.072 1395.58 135.703C1395.58 137.334 1396.9 138.656 1398.53 138.656Z" stroke="black" stroke-opacity="0.5" stroke-width="3" stroke-linejoin="round"/>
<path d="M1396.56 155.391C1398.74 155.391 1400.5 153.628 1400.5 151.453C1400.5 149.279 1398.74 147.516 1396.56 147.516C1394.39 147.516 1392.62 149.279 1392.62 151.453C1392.62 153.628 1394.39 155.391 1396.56 155.391Z" stroke="black" stroke-opacity="0.5" stroke-width="3" stroke-linejoin="round"/>
<path d="M1406.41 146.531C1407.49 146.531 1408.38 145.65 1408.38 144.562C1408.38 143.475 1407.49 142.594 1406.41 142.594C1405.32 142.594 1404.44 143.475 1404.44 144.562C1404.44 145.65 1405.32 146.531 1406.41 146.531Z" stroke="black" stroke-opacity="0.5" stroke-width="3" stroke-linejoin="round"/>
<path d="M178.812 637.078L192.594 582.938C207.448 583.567 218.424 591.108 226.062 604.594L178.812 637.078Z" stroke="black" stroke-opacity="0.5" stroke-width="3" stroke-linejoin="round"/>
<path d="M191.216 588.332C203.095 591.455 213.687 598.244 221.485 607.734" stroke="black" stroke-opacity="0.5" stroke-width="3" stroke-linejoin="round"/>
<path d="M196.531 600.656C198.162 600.656 199.484 599.334 199.484 597.703C199.484 596.072 198.162 594.75 196.531 594.75C194.9 594.75 193.578 596.072 193.578 597.703C193.578 599.334 194.9 600.656 196.531 600.656Z" stroke="black" stroke-opacity="0.5" stroke-width="3" stroke-linejoin="round"/>
<path d="M194.562 617.391C196.737 617.391 198.5 615.628 198.5 613.453C198.5 611.279 196.737 609.516 194.562 609.516C192.388 609.516 190.625 611.279 190.625 613.453C190.625 615.628 192.388 617.391 194.562 617.391Z" stroke="black" stroke-opacity="0.5" stroke-width="3" stroke-linejoin="round"/>
<path d="M204.406 608.531C205.494 608.531 206.375 607.65 206.375 606.562C206.375 605.475 205.494 604.594 204.406 604.594C203.319 604.594 202.438 605.475 202.438 606.562C202.438 607.65 203.319 608.531 204.406 608.531Z" stroke="black" stroke-opacity="0.5" stroke-width="3" stroke-linejoin="round"/>
<path d="M320.368 317.382C317.254 317.38 314.212 316.455 311.625 314.724C309.037 312.993 307.02 310.534 305.829 307.658C304.639 304.782 304.327 301.617 304.933 298.564C305.54 295.51 307.038 292.705 309.238 290.502L329.87 269.87C332.073 267.67 334.878 266.172 337.931 265.566C340.985 264.959 344.149 265.271 347.025 266.462C349.902 267.653 352.36 269.669 354.091 272.257C355.822 274.844 356.747 277.887 356.75 281C356.757 283.063 356.354 285.106 355.566 287.012C354.777 288.918 353.618 290.649 352.156 292.104C351.664 292.593 350.999 292.867 350.306 292.867C349.612 292.867 348.947 292.593 348.455 292.104C347.97 291.615 347.697 290.955 347.694 290.266C347.69 289.581 347.953 288.922 348.429 288.429C350.399 286.458 351.506 283.786 351.506 281C351.506 278.214 350.399 275.541 348.429 273.571C346.459 271.601 343.786 270.494 341 270.494C338.214 270.494 335.541 271.601 333.571 273.571L312.939 294.125C310.958 296.106 309.845 298.792 309.845 301.593C309.845 304.394 310.958 307.081 312.939 309.061C314.919 311.042 317.606 312.155 320.407 312.155C323.208 312.155 325.894 311.042 327.875 309.061L337.378 299.559C337.888 299.186 338.516 299.011 339.146 299.064C339.776 299.118 340.366 299.397 340.806 299.85C341.247 300.304 341.509 300.901 341.545 301.532C341.58 302.163 341.387 302.786 341 303.286L331.498 312.762C328.547 315.717 324.543 317.379 320.368 317.382Z" fill="#333333" fill-opacity="0.5"/>
<path d="M307.243 317.382C306.897 317.384 306.555 317.318 306.235 317.188C305.915 317.057 305.624 316.865 305.379 316.621C305.133 316.377 304.937 316.087 304.804 315.767C304.671 315.447 304.602 315.104 304.602 314.757C304.602 314.411 304.671 314.068 304.804 313.748C304.937 313.428 305.133 313.138 305.379 312.894L308.791 309.481C309.036 309.236 309.327 309.042 309.646 308.91C309.966 308.777 310.309 308.709 310.655 308.709C311.001 308.709 311.344 308.777 311.664 308.91C311.983 309.042 312.274 309.236 312.519 309.481C312.764 309.726 312.958 310.017 313.09 310.336C313.223 310.656 313.291 310.999 313.291 311.345C313.291 311.691 313.223 312.034 313.09 312.354C312.958 312.673 312.764 312.964 312.519 313.209L309.106 316.621C308.861 316.865 308.57 317.057 308.25 317.188C307.93 317.318 307.588 317.384 307.243 317.382Z" fill="#333333" fill-opacity="0.5"/>
<path d="M350.713 273.913C350.02 273.903 349.36 273.62 348.875 273.125C348.629 272.881 348.434 272.591 348.301 272.271C348.167 271.951 348.099 271.608 348.099 271.261C348.099 270.915 348.167 270.572 348.301 270.252C348.434 269.932 348.629 269.642 348.875 269.398L352.288 265.985C352.782 265.491 353.452 265.213 354.151 265.213C354.85 265.213 355.521 265.491 356.015 265.985C356.509 266.479 356.787 267.15 356.787 267.849C356.787 268.548 356.509 269.218 356.015 269.713L352.576 273.125C352.333 273.373 352.043 273.57 351.723 273.706C351.403 273.841 351.06 273.911 350.713 273.913Z" fill="#333333" fill-opacity="0.5"/>
<path d="M323.938 298.509C321.85 298.507 319.848 297.676 318.373 296.199L312.781 290.607C312.351 290.105 312.127 289.459 312.152 288.799C312.178 288.138 312.451 287.511 312.919 287.044C313.386 286.576 314.013 286.302 314.674 286.277C315.334 286.251 315.98 286.476 316.483 286.906L322.074 292.497C322.318 292.744 322.608 292.939 322.928 293.072C323.248 293.205 323.591 293.274 323.938 293.274C324.284 293.274 324.627 293.205 324.947 293.072C325.267 292.939 325.557 292.744 325.801 292.497L331.498 286.801C331.744 286.557 331.939 286.267 332.072 285.947C332.205 285.627 332.274 285.284 332.274 284.937C332.274 284.591 332.205 284.248 332.072 283.928C331.939 283.608 331.744 283.318 331.498 283.074L325.906 277.482C325.476 276.98 325.252 276.334 325.277 275.674C325.303 275.013 325.576 274.386 326.044 273.919C326.511 273.451 327.138 273.178 327.799 273.152C328.459 273.126 329.105 273.351 329.608 273.781L335.199 279.372C336.674 280.849 337.502 282.851 337.502 284.937C337.502 287.024 336.674 289.026 335.199 290.502L329.503 296.199C328.027 297.676 326.025 298.507 323.938 298.509Z" fill="#333333" fill-opacity="0.5"/>
<path d="M7.875 195.692V195.656C7.87495 192.156 8.91159 188.734 10.8541 185.823C12.7966 182.911 15.558 180.64 18.7899 179.296C22.0218 177.952 25.5793 177.595 29.0137 178.27C32.4481 178.946 35.6055 180.624 38.0874 183.092C40.0403 182.128 42.2215 181.723 44.3902 181.921C46.5589 182.119 48.6307 182.913 50.3765 184.214C52.1224 185.516 53.4744 187.275 54.2832 189.297C55.092 191.319 55.3261 193.525 54.9596 195.672C55.4984 195.722 56.0211 195.883 56.4951 196.144C56.9691 196.405 57.3842 196.76 57.7145 197.189C58.0448 197.618 58.2832 198.11 58.4149 198.635C58.5466 199.159 58.5686 199.706 58.4798 200.24C56.7 210.946 52.2979 217.722 45.2812 220.573V223.219C45.2812 224.785 44.659 226.287 43.5513 227.395C42.4437 228.503 40.9414 229.125 39.375 229.125H23.625C22.0586 229.125 20.5563 228.503 19.4487 227.395C18.341 226.287 17.7188 224.785 17.7188 223.219V220.573C10.7021 217.722 6.3 210.946 4.52026 200.24C4.43436 199.72 4.45357 199.188 4.57674 198.676C4.69991 198.164 4.92454 197.682 5.23733 197.259C5.55013 196.835 5.94473 196.478 6.39779 196.21C6.85086 195.941 7.35317 195.767 7.875 195.696V195.692ZM11.8125 195.656H15.75C15.75 193.046 16.7871 190.542 18.6332 188.696C20.4792 186.85 22.983 185.813 25.5938 185.813C28.2045 185.813 30.7083 186.85 32.5543 188.696C34.4004 190.542 35.4375 193.046 35.4375 195.656H39.375C39.375 192.001 37.923 188.496 35.3386 185.911C32.7541 183.327 29.2488 181.875 25.5938 181.875C21.9387 181.875 18.4334 183.327 15.8489 185.911C13.2645 188.496 11.8125 192.001 11.8125 195.656ZM19.6875 195.656H31.5C31.5 194.09 30.8777 192.588 29.7701 191.48C28.6625 190.372 27.1602 189.75 25.5938 189.75C24.0273 189.75 22.525 190.372 21.4174 191.48C20.3098 192.588 19.6875 194.09 19.6875 195.656ZM46.7224 195.656H50.9394C51.2367 194.493 51.2644 193.276 51.0205 192.101C50.7765 190.925 50.2674 189.82 49.5318 188.87C48.7962 187.921 47.8536 187.152 46.7758 186.622C45.698 186.092 44.5135 185.815 43.3125 185.813C42.3675 185.813 41.4697 185.978 40.635 186.281C41.3319 187.399 41.9068 188.604 42.3478 189.868C43.0978 189.682 43.8858 189.72 44.6142 189.978C45.3426 190.236 45.9792 190.702 46.4451 191.319C46.911 191.935 47.1856 192.675 47.2349 193.446C47.2842 194.217 47.106 194.986 46.7224 195.656ZM41.3438 221.25H21.6563V223.219C21.6563 223.741 21.8637 224.242 22.2329 224.611C22.6021 224.98 23.1029 225.188 23.625 225.188H39.375C39.8971 225.188 40.3979 224.98 40.7671 224.611C41.1363 224.242 41.3438 223.741 41.3438 223.219V221.25ZM20.2703 217.313H42.7298C48.9746 215.304 52.9279 209.627 54.5974 199.594H8.40263C10.0721 209.627 14.0254 215.304 20.2703 217.313Z" fill="black" fill-opacity="0.5"/>
<path d="M1597.87 308.692V308.656C1597.87 305.156 1598.91 301.734 1600.85 298.823C1602.8 295.911 1605.56 293.64 1608.79 292.296C1612.02 290.952 1615.58 290.595 1619.01 291.27C1622.45 291.946 1625.61 293.624 1628.09 296.092C1630.04 295.128 1632.22 294.723 1634.39 294.921C1636.56 295.119 1638.63 295.913 1640.38 297.214C1642.12 298.516 1643.47 300.275 1644.28 302.297C1645.09 304.319 1645.33 306.525 1644.96 308.672C1645.5 308.722 1646.02 308.883 1646.49 309.144C1646.97 309.405 1647.38 309.76 1647.71 310.189C1648.04 310.618 1648.28 311.11 1648.41 311.635C1648.55 312.159 1648.57 312.706 1648.48 313.24C1646.7 323.946 1642.3 330.722 1635.28 333.573V336.219C1635.28 337.785 1634.66 339.287 1633.55 340.395C1632.44 341.503 1630.94 342.125 1629.37 342.125H1613.62C1612.06 342.125 1610.56 341.503 1609.45 340.395C1608.34 339.287 1607.72 337.785 1607.72 336.219V333.573C1600.7 330.722 1596.3 323.946 1594.52 313.24C1594.43 312.72 1594.45 312.188 1594.58 311.676C1594.7 311.164 1594.92 310.682 1595.24 310.259C1595.55 309.835 1595.94 309.478 1596.4 309.21C1596.85 308.941 1597.35 308.767 1597.87 308.696V308.692ZM1601.81 308.656H1605.75C1605.75 306.046 1606.79 303.542 1608.63 301.696C1610.48 299.85 1612.98 298.813 1615.59 298.813C1618.2 298.813 1620.71 299.85 1622.55 301.696C1624.4 303.542 1625.44 306.046 1625.44 308.656H1629.37C1629.37 305.001 1627.92 301.496 1625.34 298.911C1622.75 296.327 1619.25 294.875 1615.59 294.875C1611.94 294.875 1608.43 296.327 1605.85 298.911C1603.26 301.496 1601.81 305.001 1601.81 308.656ZM1609.69 308.656H1621.5C1621.5 307.09 1620.88 305.588 1619.77 304.48C1618.66 303.372 1617.16 302.75 1615.59 302.75C1614.03 302.75 1612.52 303.372 1611.42 304.48C1610.31 305.588 1609.69 307.09 1609.69 308.656ZM1636.72 308.656H1640.94C1641.24 307.493 1641.26 306.276 1641.02 305.101C1640.78 303.925 1640.27 302.82 1639.53 301.87C1638.8 300.921 1637.85 300.152 1636.78 299.622C1635.7 299.092 1634.51 298.815 1633.31 298.813C1632.37 298.813 1631.47 298.978 1630.63 299.281C1631.33 300.399 1631.91 301.604 1632.35 302.868C1633.1 302.682 1633.89 302.72 1634.61 302.978C1635.34 303.236 1635.98 303.702 1636.44 304.319C1636.91 304.935 1637.19 305.675 1637.23 306.446C1637.28 307.217 1637.11 307.986 1636.72 308.656ZM1631.34 334.25H1611.66V336.219C1611.66 336.741 1611.86 337.242 1612.23 337.611C1612.6 337.98 1613.1 338.188 1613.62 338.188H1629.37C1629.9 338.188 1630.4 337.98 1630.77 337.611C1631.14 337.242 1631.34 336.741 1631.34 336.219V334.25ZM1610.27 330.313H1632.73C1638.97 328.304 1642.93 322.627 1644.6 312.594H1598.4C1600.07 322.627 1604.03 328.304 1610.27 330.313Z" fill="black" fill-opacity="0.5"/>
<path d="M48.9629 492.753C51.1286 490.785 52.5067 488.619 53.0973 486.65L59.9879 482.713C61.1692 483.303 62.5473 483.303 63.7286 482.713C65.5004 481.728 66.2879 479.366 65.1067 477.594C64.7129 477.003 64.3192 476.61 63.7286 476.216C63.7286 475.625 63.5317 474.838 63.3348 474.247C62.3504 472.475 59.9879 471.885 58.2161 472.869C57.0348 473.657 56.2473 474.838 56.2473 476.216L49.3567 480.153C46.4036 479.366 42.0723 479.957 38.1348 482.319C35.1817 484.091 32.8192 486.257 31.6379 488.619" stroke="black" stroke-opacity="0.5" stroke-width="5" stroke-miterlimit="10" stroke-linecap="round" stroke-linejoin="round"/>
<path d="M53.6901 486.257C54.0839 487.438 54.2808 488.816 54.2808 489.997C54.2808 499.053 45.4214 501.219 34.5933 501.219C23.7651 501.219 14.9058 499.053 14.9058 489.997C14.9058 480.941 23.7651 473.657 34.5933 473.657C40.8933 473.657 46.4058 476.019 49.9495 479.76" stroke="black" stroke-opacity="0.5" stroke-width="5" stroke-miterlimit="10" stroke-linecap="round" stroke-linejoin="round"/>
<path d="M55.6572 476.413C56.051 475.428 55.8541 474.444 55.2635 473.46C54.8697 472.869 54.476 472.475 53.8854 472.082C53.8854 471.491 53.6885 470.703 53.4916 470.113C52.5072 468.341 50.1447 467.75 48.3729 468.735C47.1916 469.522 46.4041 470.703 46.4041 472.082L41.876 474.641" stroke="black" stroke-opacity="0.5" stroke-width="5" stroke-miterlimit="10" stroke-linecap="round" stroke-linejoin="round"/>
<path d="M1625.96 603.753C1628.13 601.785 1629.51 599.619 1630.1 597.65L1636.99 593.713C1638.17 594.303 1639.55 594.303 1640.73 593.713C1642.5 592.728 1643.29 590.366 1642.11 588.594C1641.71 588.003 1641.32 587.61 1640.73 587.216C1640.73 586.625 1640.53 585.838 1640.33 585.247C1639.35 583.475 1636.99 582.885 1635.22 583.869C1634.03 584.657 1633.25 585.838 1633.25 587.216L1626.36 591.153C1623.4 590.366 1619.07 590.957 1615.13 593.319C1612.18 595.091 1609.82 597.257 1608.64 599.619" stroke="black" stroke-opacity="0.5" stroke-width="5" stroke-miterlimit="10" stroke-linecap="round" stroke-linejoin="round"/>
<path d="M1630.69 597.257C1631.08 598.438 1631.28 599.816 1631.28 600.997C1631.28 610.053 1622.42 612.219 1611.59 612.219C1600.77 612.219 1591.91 610.053 1591.91 600.997C1591.91 591.941 1600.77 584.657 1611.59 584.657C1617.89 584.657 1623.41 587.019 1626.95 590.76" stroke="black" stroke-opacity="0.5" stroke-width="5" stroke-miterlimit="10" stroke-linecap="round" stroke-linejoin="round"/>
<path d="M1632.66 587.413C1633.05 586.428 1632.85 585.444 1632.26 584.46C1631.87 583.869 1631.48 583.475 1630.89 583.082C1630.89 582.491 1630.69 581.703 1630.49 581.113C1629.51 579.341 1627.14 578.75 1625.37 579.735C1624.19 580.522 1623.4 581.703 1623.4 583.082L1618.88 585.641" stroke="black" stroke-opacity="0.5" stroke-width="5" stroke-miterlimit="10" stroke-linecap="round" stroke-linejoin="round"/>
<path d="M175.375 314.781V350.219C175.375 354.55 171.831 358.094 167.5 358.094C163.169 358.094 159.625 354.55 159.625 350.219V314.781C159.625 310.45 163.169 306.906 167.5 306.906C171.831 306.906 175.375 310.45 175.375 314.781Z" stroke="black" stroke-opacity="0.5" stroke-width="3" stroke-miterlimit="10" stroke-linecap="round" stroke-linejoin="round"/>
<path d="M159.822 352.187H157.46C153.325 352.187 149.781 348.644 149.781 344.509V320.491C149.781 316.356 153.325 312.812 157.46 312.812H159.822" stroke="black" stroke-opacity="0.5" stroke-width="3" stroke-miterlimit="10" stroke-linecap="round" stroke-linejoin="round"/>
<path d="M175.178 312.812H177.541C181.675 312.812 185.219 316.356 185.219 320.491V344.312C185.219 348.644 181.675 351.991 177.541 351.991H175.178" stroke="black" stroke-opacity="0.5" stroke-width="3" stroke-miterlimit="10" stroke-linecap="round" stroke-linejoin="round"/>
<path d="M169.469 350.219L167.5 347.265C166.319 345.494 166.319 343.131 167.5 341.359C168.681 339.587 168.681 337.225 167.5 335.453C166.319 333.681 166.319 331.319 167.5 329.547C168.681 327.775 168.681 325.412 167.5 323.64C166.319 321.869 166.319 319.506 167.5 317.734L169.469 314.781" stroke="black" stroke-opacity="0.5" stroke-width="3" stroke-miterlimit="10" stroke-linecap="round" stroke-linejoin="round"/>
<path d="M1125.38 34.781V70.2185C1125.38 74.5498 1121.83 78.0935 1117.5 78.0935C1113.17 78.0935 1109.63 74.5498 1109.63 70.2185V34.781C1109.63 30.4498 1113.17 26.906 1117.5 26.906C1121.83 26.906 1125.38 30.4498 1125.38 34.781Z" stroke="black" stroke-opacity="0.5" stroke-width="3" stroke-miterlimit="10" stroke-linecap="round" stroke-linejoin="round"/>
<path d="M1109.82 72.1873H1107.46C1103.33 72.1873 1099.78 68.6436 1099.78 64.5092V40.4904C1099.78 36.3561 1103.33 32.8123 1107.46 32.8123H1109.82" stroke="black" stroke-opacity="0.5" stroke-width="3" stroke-miterlimit="10" stroke-linecap="round" stroke-linejoin="round"/>
<path d="M1125.18 32.8123H1127.54C1131.68 32.8123 1135.22 36.3561 1135.22 40.4904V64.3123C1135.22 68.6436 1131.68 71.9905 1127.54 71.9905H1125.18" stroke="black" stroke-opacity="0.5" stroke-width="3" stroke-miterlimit="10" stroke-linecap="round" stroke-linejoin="round"/>
<path d="M1119.47 70.2185L1117.5 67.2654C1116.32 65.4935 1116.32 63.131 1117.5 61.3591C1118.68 59.5873 1118.68 57.2248 1117.5 55.4529C1116.32 53.681 1116.32 51.3185 1117.5 49.5466C1118.68 47.7748 1118.68 45.4123 1117.5 43.6404C1116.32 41.8685 1116.32 39.506 1117.5 37.7341L1119.47 34.781" stroke="black" stroke-opacity="0.5" stroke-width="3" stroke-miterlimit="10" stroke-linecap="round" stroke-linejoin="round"/>
<path d="M1390.66 381.718V385.656" stroke="black" stroke-opacity="0.5" stroke-width="3" stroke-miterlimit="10" stroke-linecap="round" stroke-linejoin="round"/>
<path d="M1410.34 381.718V385.656" stroke="black" stroke-opacity="0.5" stroke-width="3" stroke-miterlimit="10" stroke-linecap="round" stroke-linejoin="round"/>
<path d="M1400.5 379.749V383.687" stroke="black" stroke-opacity="0.5" stroke-width="3" stroke-miterlimit="10" stroke-linecap="round" stroke-linejoin="round"/>
<path d="M1423.73 391.562C1421.96 380.34 1412.11 371.875 1400.5 371.875C1388.88 371.875 1379.04 380.34 1377.27 391.562H1423.73Z" stroke="black" stroke-opacity="0.5" stroke-width="3" stroke-miterlimit="10" stroke-linecap="round" stroke-linejoin="round"/>
<path d="M1376.88 395.5L1379.83 397.469C1381.6 398.65 1383.96 398.65 1385.74 397.469C1387.51 396.287 1389.87 396.287 1391.64 397.469C1393.41 398.65 1395.78 398.65 1397.55 397.469C1399.32 396.287 1401.68 396.287 1403.45 397.469C1405.23 398.65 1407.59 398.65 1409.36 397.469C1411.13 396.287 1413.49 396.287 1415.27 397.469C1417.04 398.65 1419.4 398.65 1421.17 397.469L1424.13 395.5" stroke="black" stroke-opacity="0.5" stroke-width="3" stroke-miterlimit="10" stroke-linecap="round" stroke-linejoin="round"/>
<path d="M1422.16 411.25H1378.84C1376.68 411.25 1374.91 409.478 1374.91 407.312C1374.91 405.147 1376.68 403.375 1378.84 403.375H1422.16C1424.32 403.375 1426.09 405.147 1426.09 407.312C1426.09 409.478 1424.32 411.25 1422.16 411.25Z" stroke="black" stroke-opacity="0.5" stroke-width="3" stroke-miterlimit="10" stroke-linecap="round" stroke-linejoin="round"/>
<path d="M1422.15 411.25V414.007C1422.15 416.96 1419.79 419.125 1417.04 419.125H1383.96C1381.2 419.125 1378.84 416.763 1378.84 414.007V411.25" stroke="black" stroke-opacity="0.5" stroke-width="3" stroke-miterlimit="10" stroke-linecap="round" stroke-linejoin="round"/>
<path d="M527.657 36.7184V40.6559" stroke="black" stroke-opacity="0.5" stroke-width="3" stroke-miterlimit="10" stroke-linecap="round" stroke-linejoin="round"/>
<path d="M547.345 36.7184V40.6559" stroke="black" stroke-opacity="0.5" stroke-width="3" stroke-miterlimit="10" stroke-linecap="round" stroke-linejoin="round"/>
<path d="M537.499 34.7494V38.6869" stroke="black" stroke-opacity="0.5" stroke-width="3" stroke-miterlimit="10" stroke-linecap="round" stroke-linejoin="round"/>
<path d="M560.731 46.5622C558.959 35.3403 549.115 26.8747 537.499 26.8747C525.884 26.8747 516.04 35.3403 514.268 46.5622H560.731Z" stroke="black" stroke-opacity="0.5" stroke-width="3" stroke-miterlimit="10" stroke-linecap="round" stroke-linejoin="round"/>
<path d="M513.876 50.4999L516.829 52.4687C518.601 53.6499 520.963 53.6499 522.735 52.4687C524.507 51.2874 526.87 51.2874 528.642 52.4687C530.413 53.6499 532.776 53.6499 534.548 52.4687C536.32 51.2874 538.682 51.2874 540.454 52.4687C542.226 53.6499 544.588 53.6499 546.36 52.4687C548.132 51.2874 550.495 51.2874 552.267 52.4687C554.038 53.6499 556.401 53.6499 558.173 52.4687L561.126 50.4999" stroke="black" stroke-opacity="0.5" stroke-width="3" stroke-miterlimit="10" stroke-linecap="round" stroke-linejoin="round"/>
<path d="M559.156 66.2496H515.843C513.678 66.2496 511.906 64.4778 511.906 62.3121C511.906 60.1465 513.678 58.3746 515.843 58.3746H559.156C561.321 58.3746 563.093 60.1465 563.093 62.3121C563.093 64.4778 561.321 66.2496 559.156 66.2496Z" stroke="black" stroke-opacity="0.5" stroke-width="3" stroke-miterlimit="10" stroke-linecap="round" stroke-linejoin="round"/>
<path d="M559.154 66.2505V69.0067C559.154 71.9599 556.791 74.1255 554.035 74.1255H520.96C518.204 74.1255 515.841 71.763 515.841 69.0067V66.2505" stroke="black" stroke-opacity="0.5" stroke-width="3" stroke-miterlimit="10" stroke-linecap="round" stroke-linejoin="round"/>
<path d="M1434.8 682.579C1429.68 677.46 1429.68 669.388 1434.8 664.269L1456.65 686.122L1463.94 693.407L1475.16 704.629C1477.13 706.597 1477.13 709.55 1475.16 711.519C1473.19 713.488 1469.64 713.488 1467.87 711.125L1459.8 701.085C1457.83 698.525 1454.29 697.738 1451.14 698.919L1434.8 682.579Z" stroke="black" stroke-opacity="0.5" stroke-width="5" stroke-miterlimit="10" stroke-linecap="round" stroke-linejoin="round"/>
<path d="M1463.93 679.822L1474.56 669.191" stroke="black" stroke-opacity="0.5" stroke-width="5" stroke-miterlimit="10" stroke-linecap="round" stroke-linejoin="round"/>
<path d="M1459.61 689.075C1460.39 688.878 1460.98 688.878 1461.77 688.681C1464.33 688.484 1467.28 687.106 1470.24 684.153L1479.88 674.506" stroke="black" stroke-opacity="0.5" stroke-width="5" stroke-miterlimit="10" stroke-linecap="round" stroke-linejoin="round"/>
<path d="M1446.22 693.996L1432.43 705.218C1430.27 706.793 1430.07 709.943 1432.04 711.715C1434.01 713.684 1436.96 713.29 1438.54 711.321L1449.76 697.343" stroke="black" stroke-opacity="0.5" stroke-width="5" stroke-miterlimit="10" stroke-linecap="round" stroke-linejoin="round"/>
<path d="M1469.25 663.875L1459.41 673.522C1456.45 676.475 1454.88 679.428 1454.88 681.987C1454.88 682.775 1454.68 683.365 1454.48 684.153" stroke="black" stroke-opacity="0.5" stroke-width="5" stroke-miterlimit="10" stroke-linecap="round" stroke-linejoin="round"/>
<path d="M22.798 720.579C17.6793 715.46 17.6793 707.388 22.798 702.269L44.6512 724.122L51.9355 731.407L63.1574 742.629C65.1262 744.597 65.1262 747.55 63.1574 749.519C61.1887 751.488 57.6449 751.488 55.873 749.125L47.8012 739.085C45.8324 736.525 42.2887 735.738 39.1387 736.919L22.798 720.579Z" stroke="black" stroke-opacity="0.5" stroke-width="5" stroke-miterlimit="10" stroke-linecap="round" stroke-linejoin="round"/>
<path d="M51.9331 717.822L62.5644 707.191" stroke="black" stroke-opacity="0.5" stroke-width="5" stroke-miterlimit="10" stroke-linecap="round" stroke-linejoin="round"/>
<path d="M47.6052 727.075C48.3927 726.878 48.9833 726.878 49.7708 726.681C52.3302 726.484 55.2833 725.106 58.2365 722.153L67.8833 712.506" stroke="black" stroke-opacity="0.5" stroke-width="5" stroke-miterlimit="10" stroke-linecap="round" stroke-linejoin="round"/>
<path d="M34.2154 731.996L20.4341 743.218C18.2685 744.793 18.0716 747.943 20.0404 749.715C22.0091 751.684 24.9622 751.29 26.5372 749.321L37.7591 735.343" stroke="black" stroke-opacity="0.5" stroke-width="5" stroke-miterlimit="10" stroke-linecap="round" stroke-linejoin="round"/>
<path d="M57.2495 701.875L47.4058 711.522C44.4526 714.475 42.8776 717.428 42.8776 719.987C42.8776 720.775 42.6808 721.365 42.4839 722.153" stroke="black" stroke-opacity="0.5" stroke-width="5" stroke-miterlimit="10" stroke-linecap="round" stroke-linejoin="round"/>
<path d="M1617.83 49.2186H1583.18L1579.04 41.3436H1621.96L1617.83 49.2186Z" stroke="black" stroke-opacity="0.5" stroke-width="3" stroke-miterlimit="10" stroke-linecap="round" stroke-linejoin="round"/>
<path d="M1574.91 41.3436H1626.09" stroke="black" stroke-opacity="0.5" stroke-width="3" stroke-miterlimit="10" stroke-linecap="round" stroke-linejoin="round"/>
<path d="M1578.85 40.359C1578.85 27.759 1588.49 17.7184 1600.5 17.7184C1612.51 17.7184 1622.16 27.759 1622.16 40.359" stroke="black" stroke-opacity="0.5" stroke-width="3" stroke-miterlimit="10" stroke-linecap="round" stroke-linejoin="round"/>
<path d="M1600.5 17.7186C1602.68 17.7186 1604.44 15.9557 1604.44 13.7811C1604.44 11.6065 1602.68 9.84363 1600.5 9.84363C1598.33 9.84363 1596.56 11.6065 1596.56 13.7811C1596.56 15.9557 1598.33 17.7186 1600.5 17.7186Z" stroke="black" stroke-opacity="0.5" stroke-width="3" stroke-miterlimit="10" stroke-linecap="round" stroke-linejoin="round"/>
</svg>
