<svg width="50" height="50" viewBox="0 0 50 50" fill="none" xmlns="http://www.w3.org/2000/svg">
<g clip-path="url(#clip0_18_49)">
<path d="M25 50C38.8071 50 50 38.8071 50 25C50 11.1929 38.8071 0 25 0C11.1929 0 0 11.1929 0 25C0 38.8071 11.1929 50 25 50Z" fill="#D97077"/>
<path d="M48.7223 32.9068L39.0951 24.9998H26.5957L14.0967 37.4991L27.1508 49.9065C37.2469 49.0461 45.6304 42.1866 48.7223 32.9068Z" fill="#D97077"/>
<path d="M48.7223 32.9068L39.0951 24.9998H26.5957L14.0967 37.4991L27.1508 49.9065C37.2469 49.0461 45.6304 42.1866 48.7223 32.9068Z" fill="#CA6168"/>
<path d="M39.0951 24.9998L14.0967 37.4991L22.6874 24.9998L14.0967 12.5007L39.0951 24.9998Z" fill="white"/>
</g>
<defs>
<clipPath id="clip0_18_49">
<rect width="50" height="50" fill="white"/>
</clipPath>
</defs>
</svg>
