<svg width="40" height="40" viewBox="0 0 40 40" fill="none" xmlns="http://www.w3.org/2000/svg">
<path d="M34.0833 34.0834H28.1567V24.8C28.1567 22.5867 28.1167 19.7367 25.0733 19.7367C21.9867 19.7367 21.5133 22.15 21.5133 24.6367V34.0834H15.5867V14.9934H21.2767V17.6034H21.3567C22.5167 15.6234 24.6767 14.4367 26.97 14.52C32.9767 14.52 34.0867 18.47 34.0867 23.6134L34.0833 34.0801V34.0834ZM8.9 12.3834C7.98958 12.379 7.11765 12.0156 6.47356 11.3722C5.82948 10.7287 5.46526 9.85713 5.46 8.94672C5.46 7.06005 7.01333 5.50672 8.9 5.50672C10.7867 5.50672 12.3367 7.06005 12.34 8.94672C12.34 10.8334 10.7867 12.3834 8.9 12.3834ZM11.8633 34.0834H5.93V14.9934H11.8633V34.0834ZM37.0333 4.95441e-05H2.95C2.17717 -0.00443922 1.43379 0.296248 0.88141 0.83677C0.32903 1.37729 0.0122822 2.11397 0 2.88672V37.1134C0.0122822 37.8861 0.32903 38.6228 0.88141 39.1633C1.43379 39.7038 2.17717 40.0045 2.95 40H37.0367C37.8113 40.0063 38.5571 39.7066 39.112 39.1661C39.6668 38.6256 39.986 37.8879 40 37.1134V2.88338C39.986 2.10947 39.6666 1.37248 39.1115 0.833012C38.5565 0.293545 37.8107 -0.00466084 37.0367 0.00338264L37.0333 4.95441e-05Z" fill="#0A66C2"/>
</svg>
