<svg width="20" height="20" viewBox="0 0 20 20" fill="none" xmlns="http://www.w3.org/2000/svg">
<path d="M10 1.93548C10.5345 1.93548 10.9677 1.50221 10.9677 0.967742C10.9677 0.433277 10.5345 0 10 0H6.12903C2.74406 0 0 2.74406 0 6.12903V13.871C0 17.256 2.74406 20 6.12903 20H13.871C17.256 20 20 17.256 20 13.871V10C20 9.46555 19.5667 9.03226 19.0323 9.03226C18.4978 9.03226 18.0645 9.46555 18.0645 10V13.871C18.0645 16.187 16.187 18.0645 13.871 18.0645H6.12903C3.81299 18.0645 1.93548 16.187 1.93548 13.871V6.12903C1.93548 3.81299 3.81299 1.93548 6.12903 1.93548H10ZM19.6718 0.241448C19.5939 0.172661 19.5075 0.11857 19.4163 0.0791791C19.2985 0.0282345 19.1687 0 19.0323 0H13.7574C13.223 0 12.7897 0.433277 12.7897 0.967742C12.7897 1.50221 13.223 1.93548 13.7574 1.93548H16.696L9.31574 9.31574C8.93781 9.69368 8.93781 10.3063 9.31574 10.6843C9.69368 11.0622 10.3063 11.0622 10.6843 10.6843L18.0645 3.30403V6.31097C18.0645 6.84542 18.4978 7.27871 19.0323 7.27871C19.5667 7.27871 20 6.84542 20 6.31097V0.967742C20 0.822928 19.9682 0.685542 19.9112 0.562191C19.8734 0.480288 19.8236 0.402578 19.7617 0.331737C19.7337 0.299714 19.7037 0.269548 19.6718 0.241448Z" fill="black"/>
<path d="M10 1.93548C10.5345 1.93548 10.9677 1.50221 10.9677 0.967742C10.9677 0.433277 10.5345 0 10 0H6.12903C2.74406 0 0 2.74406 0 6.12903V13.871C0 17.256 2.74406 20 6.12903 20H13.871C17.256 20 20 17.256 20 13.871V10C20 9.46555 19.5667 9.03226 19.0323 9.03226C18.4978 9.03226 18.0645 9.46555 18.0645 10V13.871C18.0645 16.187 16.187 18.0645 13.871 18.0645H6.12903C3.81299 18.0645 1.93548 16.187 1.93548 13.871V6.12903C1.93548 3.81299 3.81299 1.93548 6.12903 1.93548H10ZM19.6718 0.241448C19.5939 0.172661 19.5075 0.11857 19.4163 0.0791791C19.2985 0.0282345 19.1687 0 19.0323 0H13.7574C13.223 0 12.7897 0.433277 12.7897 0.967742C12.7897 1.50221 13.223 1.93548 13.7574 1.93548H16.696L9.31574 9.31574C8.93781 9.69368 8.93781 10.3063 9.31574 10.6843C9.69368 11.0622 10.3063 11.0622 10.6843 10.6843L18.0645 3.30403V6.31097C18.0645 6.84542 18.4978 7.27871 19.0323 7.27871C19.5667 7.27871 20 6.84542 20 6.31097V0.967742C20 0.822928 19.9682 0.685542 19.9112 0.562191C19.8734 0.480288 19.8236 0.402578 19.7617 0.331737C19.7337 0.299714 19.7037 0.269548 19.6718 0.241448Z" stroke="black"/>
</svg>
